<?xml version="1.0" encoding="UTF-8"?>
<svg xmlns="http://www.w3.org/2000/svg" xmlns:xlink="http://www.w3.org/1999/xlink" viewBox="0 0 50 50" width="50px" height="50px">
<g id="surface114027808">
<path style=" stroke:none;fill-rule:nonzero;fill:rgb(0%,27.058825%,100%);fill-opacity:1;" d="M 19.234375 42.46875 C 19.800781 42.222656 20.199219 41.660156 20.199219 41 L 20.199219 36.679688 C 20.199219 36.523438 20.210938 36.359375 20.234375 36.191406 C 20.222656 36.195312 20.210938 36.199219 20.199219 36.199219 C 20.199219 36.199219 17.800781 36.199219 17.320312 36.199219 C 16.121094 36.199219 15.078125 35.71875 14.601562 34.761719 C 14.039062 33.71875 13.800781 31.960938 12.359375 31 C 12.121094 30.839844 12.28125 30.601562 12.761719 30.601562 C 13.238281 30.679688 14.28125 31.320312 14.921875 32.199219 C 15.640625 33.078125 16.359375 33.800781 17.640625 33.800781 C 19.628906 33.800781 20.695312 33.699219 21.335938 33.355469 C 22.085938 32.246094 23.121094 31.398438 24.199219 31.398438 L 24.199219 31.378906 C 19.664062 31.234375 16.769531 29.726562 15.421875 27.398438 C 12.488281 27.433594 9.933594 27.722656 8.476562 27.964844 C 8.433594 27.703125 8.390625 27.441406 8.359375 27.175781 C 9.796875 26.9375 12.230469 26.660156 15.035156 26.605469 C 14.945312 26.382812 14.867188 26.15625 14.800781 25.925781 C 11.992188 25.78125 9.566406 25.894531 8.25 26.003906 C 8.234375 25.738281 8.214844 25.472656 8.210938 25.203125 C 9.53125 25.097656 11.886719 24.988281 14.625 25.113281 C 14.5625 24.714844 14.519531 24.304688 14.519531 23.878906 C 14.519531 22.519531 15 21.082031 15.878906 19.878906 C 15.480469 18.519531 14.921875 15.640625 16.039062 14.601562 C 18.199219 14.601562 19.722656 15.640625 20.441406 16.28125 C 21.800781 15.71875 23.320312 15.398438 25 15.398438 C 26.679688 15.398438 28.199219 15.71875 29.480469 16.28125 C 30.199219 15.640625 31.71875 14.601562 33.878906 14.601562 C 35.078125 15.71875 34.441406 18.601562 34.039062 19.878906 C 34.921875 21.078125 35.398438 22.441406 35.320312 23.878906 C 35.320312 24.265625 35.285156 24.640625 35.230469 25.007812 C 38.03125 24.871094 40.453125 24.980469 41.796875 25.089844 C 41.792969 25.359375 41.769531 25.621094 41.753906 25.886719 C 40.417969 25.777344 37.933594 25.664062 35.066406 25.816406 C 34.996094 26.085938 34.910156 26.347656 34.808594 26.601562 C 37.644531 26.636719 40.140625 26.910156 41.644531 27.152344 C 41.609375 27.417969 41.570312 27.679688 41.523438 27.941406 C 39.996094 27.695312 37.386719 27.410156 34.421875 27.394531 C 33.089844 29.699219 30.246094 31.199219 25.800781 31.375 L 25.800781 31.398438 C 27.878906 31.398438 29.800781 34.519531 29.800781 36.679688 L 29.800781 41 C 29.800781 41.660156 30.199219 42.222656 30.765625 42.46875 C 38.097656 40.042969 43.398438 33.132812 43.398438 25 C 43.398438 14.855469 35.144531 6.601562 25 6.601562 C 14.855469 6.601562 6.601562 14.855469 6.601562 25 C 6.601562 33.132812 11.902344 40.042969 19.234375 42.46875 Z M 19.234375 42.46875 "/>
</g>
</svg>
